<?xml version="1.0" encoding="utf-8"?>
<!-- Generator: Adobe Illustrator 24.1.0, SVG Export Plug-In . SVG Version: 6.00 Build 0)  -->
<svg version="1.1" id="Layer_1" xmlns="http://www.w3.org/2000/svg" xmlns:xlink="http://www.w3.org/1999/xlink" x="0px" y="0px"
	 viewBox="0 0 400 400" style="enable-background:new 0 0 400 400;" xml:space="preserve">
<g>
	<path d="M72.33,269.89c0.93-3.32,2.25-6.53,3.91-9.55c0.81-1.47,2.16-2.93,2.79-4.46c0.33-0.8,0.42-1.38,0.34-1.78
		c-0.29-1.47-2.87-0.51-4.25,0.55c-1.9,1.45-3.8,2.89-5.62,4.44c-4.17,3.54-8.05,7.43-11.46,11.7c-7.75,9.71-12.82,21.5-12.63,34.08
		c0.13,8.15,2.39,16.11,5.91,23.43c0,0,24.66-10.91,20-38.77C70.25,283.14,70.55,276.26,72.33,269.89z"/>
	<path d="M146.31,321.04c-0.4-0.08-0.98,0.01-1.78,0.34c-1.53,0.63-2.99,1.98-4.46,2.79c-3.02,1.66-6.23,2.98-9.55,3.91
		c-6.37,1.79-13.25,2.08-19.64,1.01c-27.86-4.66-38.77,20-38.77,20c7.32,3.52,15.28,5.78,23.43,5.91
		c12.57,0.2,24.36-4.88,34.08-12.63c4.28-3.41,8.16-7.3,11.7-11.46c1.55-1.82,2.99-3.72,4.44-5.62
		C146.83,323.91,147.79,321.33,146.31,321.04z"/>
	<path d="M124.21,383.69c0,0,31.86-5.13,13.83-33.38C105.32,357.53,124.21,383.69,124.21,383.69z"/>
	<path d="M254.11,79.37c0.4,0.08,0.98-0.01,1.78-0.34c1.53-0.63,2.99-1.98,4.46-2.79c3.02-1.66,6.23-2.98,9.55-3.91
		c6.37-1.79,13.25-2.08,19.64-1.01c27.86,4.66,38.77-20,38.77-20c-7.32-3.52-15.28-5.78-23.43-5.91
		c-12.57-0.2-24.36,4.88-34.08,12.63c-4.28,3.41-8.16,7.3-11.7,11.46c-1.55,1.82-2.99,3.72-4.44,5.62
		C253.6,76.5,252.64,79.08,254.11,79.37z"/>
	<path d="M276.22,16.72c0,0-31.86,5.13-13.83,33.38C295.11,42.87,276.22,16.72,276.22,16.72z"/>
	<path d="M328.1,130.52c-0.93,3.32-2.25,6.53-3.91,9.55c-0.81,1.47-2.16,2.93-2.79,4.46c-0.33,0.8-0.42,1.38-0.34,1.78
		c0.29,1.47,2.87,0.51,4.25-0.55c1.9-1.45,3.8-2.89,5.62-4.44c4.17-3.54,8.05-7.43,11.46-11.7c7.75-9.71,12.82-21.5,12.63-34.08
		c-0.13-8.15-2.39-16.11-5.91-23.43c0,0-24.66,10.91-20,38.77C330.18,117.26,329.88,124.15,328.1,130.52z"/>
	<path d="M289.54,329.1c-6.39,1.07-13.27,0.78-19.64-1.01c-3.32-0.93-6.53-2.25-9.55-3.91c-1.47-0.81-2.93-2.16-4.46-2.79
		c-0.8-0.33-1.38-0.42-1.78-0.34c-1.47,0.29-0.51,2.87,0.55,4.25c1.45,1.9,2.89,3.8,4.44,5.62c3.54,4.17,7.43,8.05,11.7,11.46
		c9.71,7.75,21.5,12.82,34.08,12.63c8.15-0.13,16.11-2.39,23.43-5.91C328.31,349.09,317.4,324.43,289.54,329.1z"/>
	<path d="M262.39,350.31c-18.03,28.25,13.83,33.38,13.83,33.38S295.11,357.53,262.39,350.31z"/>
	<path d="M330.92,259.09c-1.82-1.55-3.72-2.99-5.62-4.44c-1.39-1.06-3.97-2.02-4.25-0.55c-0.08,0.4,0.01,0.98,0.34,1.78
		c0.63,1.53,1.98,2.99,2.79,4.46c1.66,3.02,2.98,6.23,3.91,9.55c1.79,6.37,2.08,13.25,1.01,19.64c-4.66,27.86,20,38.77,20,38.77
		c3.52-7.32,5.78-15.28,5.91-23.43c0.2-12.57-4.88-24.36-12.63-34.08C338.98,266.51,335.09,262.62,330.92,259.09z"/>
	<path d="M69.5,141.32c1.82,1.55,3.72,2.99,5.62,4.44c1.39,1.06,3.97,2.02,4.25,0.55c0.08-0.4-0.01-0.98-0.34-1.78
		c-0.63-1.53-1.98-2.99-2.79-4.46c-1.66-3.02-2.98-6.23-3.91-9.55c-1.79-6.37-2.08-13.25-1.01-19.64c4.66-27.86-20-38.77-20-38.77
		c-3.52,7.32-5.78,15.28-5.91,23.43c-0.2,12.57,4.88,24.36,12.63,34.08C61.45,133.89,65.34,137.78,69.5,141.32z"/>
	<path d="M110.89,71.31c6.39-1.07,13.27-0.78,19.64,1.01c3.32,0.93,6.53,2.25,9.55,3.91c1.47,0.81,2.93,2.16,4.46,2.79
		c0.8,0.33,1.38,0.42,1.78,0.34c1.47-0.29,0.51-2.87-0.55-4.25c-1.45-1.9-2.89-3.8-4.44-5.62c-3.54-4.17-7.43-8.05-11.7-11.46
		c-9.71-7.75-21.5-12.82-34.08-12.63c-8.15,0.13-16.11,2.39-23.43,5.91C72.12,51.31,83.03,75.97,110.89,71.31z"/>
	<path d="M138.04,50.1c18.03-28.25-13.83-33.38-13.83-33.38S105.32,42.87,138.04,50.1z"/>
	<path d="M45.91,172.22c3.76-5.27,8.83-9.93,14.6-13.17c3.01-1.69,6.21-3.02,9.52-3.99c1.61-0.47,3.6-0.54,5.13-1.18
		c0.8-0.33,1.27-0.68,1.5-1.02c0.84-1.24-1.66-2.39-3.39-2.62c-2.37-0.32-4.73-0.64-7.11-0.84c-5.45-0.44-10.95-0.44-16.38,0.17
		c-12.35,1.39-24.27,6.14-33.02,15.17c-5.67,5.85-9.7,13.08-12.39,20.75C4.35,185.5,29.51,195.22,45.91,172.22z"/>
	<path d="M50.11,138.03c-7.23-32.72-33.38-13.83-33.38-13.83S21.86,156.06,50.11,138.03z"/>
	<path d="M49.77,250.82c5.44,0.61,10.93,0.61,16.38,0.17c2.38-0.19,4.74-0.52,7.11-0.84c1.73-0.23,4.23-1.38,3.39-2.62
		c-0.23-0.34-0.7-0.68-1.5-1.02c-1.53-0.64-3.51-0.71-5.13-1.18c-3.31-0.96-6.51-2.3-9.52-3.99c-5.77-3.24-10.84-7.9-14.6-13.17
		c-16.4-23-41.56-13.27-41.56-13.27c2.69,7.66,6.72,14.89,12.39,20.74C25.5,244.68,37.42,249.43,49.77,250.82z"/>
	<path d="M16.73,276.2c0,0,26.15,18.9,33.38-13.83C21.86,244.35,16.73,276.2,16.73,276.2z"/>
	<path d="M396.07,185.5c-2.69-7.66-6.72-14.89-12.39-20.75c-8.75-9.03-20.68-13.78-33.02-15.17c-5.44-0.61-10.93-0.61-16.38-0.17
		c-2.38,0.19-4.74,0.52-7.11,0.84c-1.73,0.23-4.23,1.38-3.39,2.62c0.23,0.34,0.7,0.68,1.5,1.02c1.53,0.64,3.51,0.71,5.13,1.18
		c3.31,0.96,6.51,2.3,9.52,3.99c5.77,3.24,10.84,7.9,14.6,13.17C370.92,195.22,396.07,185.5,396.07,185.5z"/>
	<path d="M383.7,124.2c0,0-26.15-18.9-33.38,13.83C378.57,156.06,383.7,124.2,383.7,124.2z"/>
	<path d="M354.52,228.18c-3.76,5.27-8.83,9.93-14.6,13.17c-3.01,1.69-6.21,3.02-9.52,3.99c-1.61,0.47-3.6,0.54-5.13,1.18
		c-0.8,0.33-1.27,0.68-1.5,1.02c-0.84,1.24,1.66,2.39,3.39,2.62c2.37,0.32,4.73,0.64,7.11,0.84c5.45,0.44,10.95,0.44,16.38-0.17
		c12.35-1.39,24.27-6.14,33.02-15.17c5.67-5.85,9.7-13.08,12.39-20.74C396.07,214.91,370.92,205.19,354.52,228.18z"/>
	<path d="M350.32,262.38c7.23,32.72,33.38,13.83,33.38,13.83S378.57,244.35,350.32,262.38z"/>
	<path d="M172.23,354.5c-5.27-3.76-9.93-8.83-13.17-14.6c-1.69-3.01-3.02-6.21-3.99-9.52c-0.47-1.61-0.54-3.6-1.18-5.13
		c-0.33-0.8-0.68-1.27-1.02-1.5c-1.24-0.84-2.39,1.66-2.62,3.39c-0.32,2.37-0.64,4.73-0.84,7.11c-0.44,5.45-0.44,10.95,0.17,16.38
		c1.39,12.35,6.14,24.27,15.17,33.02c5.85,5.67,13.08,9.7,20.75,12.39C185.51,396.06,195.23,370.91,172.23,354.5z"/>
	<path d="M250.17,327.15c-0.23-1.73-1.38-4.23-2.62-3.39c-0.34,0.23-0.68,0.7-1.02,1.5c-0.64,1.53-0.71,3.51-1.18,5.13
		c-0.96,3.31-2.3,6.51-3.99,9.52c-3.24,5.77-7.9,10.84-13.17,14.6c-23,16.4-13.27,41.56-13.27,41.56
		c7.66-2.69,14.89-6.72,20.75-12.39c9.03-8.75,13.78-20.68,15.17-33.02c0.61-5.44,0.61-10.93,0.17-16.38
		C250.81,331.88,250.49,329.52,250.17,327.15z"/>
	<path d="M150.26,73.25c0.23,1.73,1.38,4.23,2.62,3.39c0.34-0.23,0.68-0.7,1.02-1.5c0.64-1.53,0.71-3.51,1.18-5.13
		c0.96-3.31,2.3-6.51,3.99-9.52c3.24-5.77,7.9-10.84,13.17-14.6c23-16.4,13.27-41.56,13.27-41.56c-7.66,2.69-14.89,6.72-20.75,12.39
		c-9.03,8.75-13.78,20.68-15.17,33.02c-0.61,5.44-0.61,10.93-0.17,16.38C149.62,68.52,149.94,70.88,150.26,73.25z"/>
	<path d="M228.19,45.9c5.27,3.76,9.93,8.83,13.17,14.6c1.69,3.01,3.02,6.21,3.99,9.52c0.47,1.61,0.54,3.6,1.18,5.13
		c0.33,0.8,0.68,1.27,1.02,1.5c1.24,0.84,2.39-1.66,2.62-3.39c0.32-2.37,0.64-4.73,0.84-7.11c0.44-5.45,0.44-10.95-0.17-16.38
		c-1.39-12.35-6.14-24.27-15.17-33.02c-5.85-5.67-13.08-9.7-20.75-12.39C214.92,4.34,205.2,29.5,228.19,45.9z"/>
	<path d="M312.87,87.55c-90.72,16.4-97.71,97.71-97.71,97.71S296.47,178.27,312.87,87.55z"/>
	<path d="M245.86,200.2c0,0,33.95,75.41,112.93,0C279.81,124.8,245.86,200.2,245.86,200.2z"/>
	<path d="M215.16,215.15c0,0,6.99,81.31,97.71,97.71C296.47,222.14,215.16,215.15,215.16,215.15z"/>
	<path d="M200.21,245.85c0,0-75.41,33.95,0,112.93C275.62,279.8,200.21,245.85,200.21,245.85z"/>
	<path d="M185.27,215.15c0,0-81.31,6.99-97.71,97.71C178.28,296.46,185.27,215.15,185.27,215.15z"/>
	<path d="M154.57,200.2c0,0-33.95-75.41-112.93,0C120.62,275.61,154.57,200.2,154.57,200.2z"/>
	<path d="M87.56,87.55c16.4,90.72,97.71,97.71,97.71,97.71S178.28,103.94,87.56,87.55z"/>
	<path d="M200.21,154.56c0,0,75.41-33.95,0-112.93C124.81,120.6,200.21,154.56,200.21,154.56z"/>
</g>
</svg>
