<svg xmlns="http://www.w3.org/2000/svg" viewBox="0 0 132.13 308.35">

  <g id="pot"><g id="_Pot_" data-name=" Pot ">
    <path d="M18.16,236.7a8,8,0,0,1-.48-16h93.37a8,8,0,0,1,.48,16Z" transform="translate(0)" style="fill:#603813"/><path d="M46.41,308.29a7.1,7.1,0,0,1-7-5l-19.2-66H109L91.66,303.2a7.12,7.12,0,0,1-7,5.15H46.41Z" transform="translate(0)" style="fill:#603813"/>
  </g></g>

  <g id="stem"><rect x="61.92" y="84.47" width="6.61" height="135.95" style="fill:#008b51"/><g id="_RightLeaf_" data-name=" RightLeaf ">
    <path d="M66.87,179.16h0l63.73-59.67h0c-5.57-5.21-24.29,4-41.89,20.45S61.37,173.91,66.87,179.16Z" transform="translate(0)" style="fill:#008b51"/>
    <path d="M108.75,158.66c17.6-16.41,27.34-34,21.85-39.21L66.87,179.16C72.5,184.26,91.22,175.16,108.75,158.66Z" transform="translate(0)" style="fill:#006937"/>
  </g>

  <g id="_LeftLeaf_" data-name=" LeftLeaf ">
    <path d="M1.54,119.91h0l63.73,59.6h0c5.56-5.21-4.25-22.73-21.85-39.22S7.1,114.69,1.54,119.91Z" transform="translate(0)" style="fill:#008b51"/>
    <path d="M23.38,159.16c17.53,16.48,36.32,25.6,41.82,20.45L1.54,119.91C-4,125.16,5.78,142.64,23.38,159.16Z" transform="translate(0)" style="fill:#006937"/></g>
  </g>

  <g id="pettels"><g id="_Peddles_" data-name=" Peddles ">
    <path d="M63.53,39.39l1.87,3.32c2-2.67,4.32-5.4,6.82-8.14.84-.91,1.67-1.82,2.51-2.67v-.33a94.19,94.19,0,0,0-.84-13,102.08,102.08,0,0,0-7.3,13.29C65.47,34.44,64.43,37,63.53,39.39Z" transform="translate(0)" style="fill:#e5ef11;stroke:${#fff};stroke-miterlimit:10"/>
    <path d="M74.73,31.9a101.81,101.81,0,0,1-.56,10.62c1.25-1.24,2.64-2.41,4-3.65,2.36-2.08,4.8-4,7.16-5.73a80,80,0,0,0,4.18-13.62A84.57,84.57,0,0,0,74.73,31.9Z" transform="translate(0)" style="fill:#e5ef11;stroke:#fff;stroke-miterlimit:10"/>
    <path d="M74.17,42.58A101.62,101.62,0,0,0,74.73,32c-.84.84-1.67,1.75-2.51,2.67-2.5,2.73-4.8,5.47-6.82,8.14,1.12,2,2.09,4,2.93,5.86A79.57,79.57,0,0,1,74.17,42.58Z" transform="translate(0)" style="fill:#e5ef11;stroke:#fff;stroke-miterlimit:10"/>
    <path d="M83,38.48c-.91,2-1.88,4-2.86,5.8.63-.33,1.33-.59,2-.92C85,42.13,87.77,41,90.48,40c4.8-5.86,8.28-11.46,10-15.76A70.42,70.42,0,0,0,85.3,33.16C84.61,34.9,83.84,36.66,83,38.48Z" transform="translate(0)" style="fill:#e5ef11;stroke:#fff;stroke-miterlimit:10"/>
    <path d="M80.15,44.28c1-1.83,2-3.78,2.86-5.8.83-1.82,1.6-3.58,2.29-5.34-2.36,1.76-4.73,3.65-7.16,5.73-1.39,1.24-2.72,2.41-4,3.65-.21,1.76-.42,3.52-.69,5.08Q76.62,45.94,80.15,44.28Z" transform="translate(0)" style="fill:#e5ef11;stroke:#fff;stroke-miterlimit:10"/><path d="M69,50.16c1.39-.84,2.86-1.69,4.39-2.54.27-1.62.48-3.32.69-5.08a77.65,77.65,0,0,0-5.84,6A8.86,8.86,0,0,1,69,50.16Z" transform="translate(0)" style="fill:#e5ef11;stroke:#fff;stroke-miterlimit:10"/>
    <path d="M85.72,45.51a98.53,98.53,0,0,1-14,12.77c.14.65.2,1.24.27,1.83a2.25,2.25,0,0,1,.63.06,2.89,2.89,0,0,1,.63.26,99.23,99.23,0,0,1,12.17-5.14c1.6-1.24,3.27-2.61,4.87-4a96.45,96.45,0,0,0,14.2-15,86.43,86.43,0,0,0-14.11,3.87C89,41.87,87.39,43.69,85.72,45.51Z" transform="translate(0)" style="fill:#e5ef11;stroke:#fff;stroke-miterlimit:10"/><path d="M71.67,58.28a107.92,107.92,0,0,0,14-12.77c1.67-1.82,3.27-3.64,4.73-5.4-2.71,1-5.5,2.08-8.35,3.32-.62.26-1.32.59-2,.91a80.52,80.52,0,0,1-8.62,13.23A2.21,2.21,0,0,1,71.67,58.28Z" transform="translate(0)" style="fill:#e5ef11;stroke:#fff;stroke-miterlimit:10"/>
    <path d="M71.25,56.33a7.42,7.42,0,0,1,.28,1.24,76.46,76.46,0,0,0,8.62-13.23c-2.36,1.11-4.59,2.22-6.74,3.39A55.22,55.22,0,0,1,71.25,56.33Z" transform="translate(0)" style="fill:#e5ef11;stroke:#fff;stroke-miterlimit:10"/>
    <path d="M73.48,47.66c-1.54.85-3,1.69-4.39,2.5a49,49,0,0,1,2.16,6.13A62.47,62.47,0,0,0,73.48,47.66Z" transform="translate(0)" style="fill:#e5ef11;stroke:#fff;stroke-miterlimit:10"/><path d="M50.72,61c2,0,3.83.06,5.57.19A9.72,9.72,0,0,1,56.78,58a94.21,94.21,0,0,1-8.14-9.8c-3.48-1-7.31-1.89-11.34-2.67a128,128,0,0,0-13.78-1.82A102.34,102.34,0,0,0,36,53,99.08,99.08,0,0,0,50.72,61Z" transform="translate(0)" style="fill:#e5ef11;stroke:#fff;stroke-miterlimit:10"/>
    <path d="M57.75,59c-.35-.33-.69-.72-1-1a12,12,0,0,0-.49,3.25h0A18.65,18.65,0,0,1,57.75,59Z" transform="translate(0)" style="fill:#e5ef11;stroke:#fff;stroke-miterlimit:10"/><path d="M59.77,61.34c0-.06,0-.13.07-.13s-.07-.19-.07-.32c-.63-.59-1.25-1.17-1.88-1.83a15.51,15.51,0,0,0-1.53,2.15c1.18.07,2.3.2,3.41.26C59.7,61.41,59.7,61.34,59.77,61.34Z" transform="translate(0)" style="fill:#e5ef11;stroke:#fff;stroke-miterlimit:10"/><path d="M59.7,60.82c0,.13.07.2.07.33,0-.07.07-.13.07-.2S59.77,60.89,59.7,60.82Z" transform="translate(0)" style="fill:#e5ef11;stroke:#fff;stroke-miterlimit:10"/>
    <path d="M59.77,61.34c0,.07-.07.13-.07.2h0C59.7,61.41,59.7,61.34,59.77,61.34Z" transform="translate(0)" style="fill:#e5ef11;stroke:#fff;stroke-miterlimit:10"/>
    <path d="M58.24,48.16c.69.65,1.39,1.23,2.09,1.82a74.56,74.56,0,0,1,3.2-10.68c-.84-1.44-1.81-2.94-2.79-4.43-1.25-2-2.57-3.78-3.89-5.54v2.15A98.13,98.13,0,0,0,58.24,48.16Z" transform="translate(0)" style="fill:#e5ef11;stroke:#fff;stroke-miterlimit:10"/>
    <path d="M65.4,42.71l-1.87-3.32a81,81,0,0,0-3.2,10.68l.07.07A66.55,66.55,0,0,1,65.4,42.71Z" transform="translate(0)" style="fill:#e5ef11;stroke:#fff;stroke-miterlimit:10"/><path d="M63.87,53.59l.7-.45c1.11-1.44,2.37-3,3.76-4.56-.84-1.89-1.81-3.85-2.93-5.87a71.47,71.47,0,0,0-5,7.43C61.65,51.31,62.83,52.48,63.87,53.59Z" transform="translate(0)" style="fill:#e5ef11;stroke:#fff;stroke-miterlimit:10"/>
    <path d="M68.33,48.58c-1.34,1.58-2.65,3.12-3.76,4.58,1.42-1,2.85-2,4.42-3A14.45,14.45,0,0,0,68.33,48.58Z" transform="translate(0)" style="fill:#e5ef11;stroke:#fff;stroke-miterlimit:10"/>
    <path d="M64.57,53.16l-.7.45c.07.07.14.13.14.2A7.52,7.52,0,0,1,64.57,53.16Z" transform="translate(0)" style="fill:#e5ef11;stroke:#fff;stroke-miterlimit:10"/><path d="M68.74,60.89c.28,0,.56.06.91.06A4.27,4.27,0,0,1,72,60c-.07-.59-.14-1.17-.27-1.82-.7.52-1.47,1-2.16,1.5A9.45,9.45,0,0,1,68.74,60.89Z" transform="translate(0)" style="fill:#e5ef11;stroke:#fff;stroke-miterlimit:10"/>
    <path d="M68.6,60.69c0,.07.07.13.07.2h.14a9.61,9.61,0,0,0,.84-1.17c-.07.06-.14.06-.21.13A8.33,8.33,0,0,0,68.6,60.69Z" transform="translate(0)" style="fill:#e5ef11;stroke:#fff;stroke-miterlimit:10"/>
    <path d="M69.37,59.91l-.83.59c0,.06.06.13.06.19A8.11,8.11,0,0,1,69.37,59.91Z" transform="translate(0)" style="fill:#e5ef11;stroke:#fff;stroke-miterlimit:10"/>
    <path d="M69.72,59.58c-.07.07-.07.14-.14.2.69-.46,1.39-1,2.16-1.5a3,3,0,0,1-.14-.78C70.9,58.28,70.27,58.93,69.72,59.58Z" transform="translate(0)" style="fill:#e5ef11;stroke:#fff;stroke-miterlimit:10"/>
    <path d="M69.58,59.78c.07-.06.07-.13.14-.2l-.35.33C69.44,59.85,69.51,59.85,69.58,59.78Z" transform="translate(0)" style="fill:#e5ef11;stroke:#fff;stroke-miterlimit:10"/>
    <path d="M71.53,57.5c-.07-.39-.21-.78-.28-1.24a21.52,21.52,0,0,1-1.53,3.26C70.27,58.93,70.9,58.28,71.53,57.5Z" transform="translate(0)" style="fill:#e5ef11;stroke:#fff;stroke-miterlimit:10"/>
    <path d="M65.54,55.55c1.67,1.3,2.51,2.6,2.51,3.77.21.4.35.79.49,1.11l.83-.58.35-.33a21.52,21.52,0,0,0,1.53-3.26,47,47,0,0,0-2.16-6.1c-1.6,1-3.13,2-4.45,2.93-.14.2-.35.46-.49.65A17.38,17.38,0,0,0,65.54,55.55Z" transform="translate(0)" style="fill:#e5ef11;stroke:#fff;stroke-miterlimit:10"/>
    <path d="M65.54,55.55a19,19,0,0,1,2.51,3.77C68.05,58.16,67.21,56.91,65.54,55.55Z" transform="translate(0)" style="fill:#e5ef11;stroke:#fff;stroke-miterlimit:10"/>
    <path d="M48.57,48.16A87,87,0,0,1,59,51.83c-.27-1.17-.55-2.34-.76-3.64a107.21,107.21,0,0,0-12.18-9C44.31,38.08,42.57,37,40.83,36c1.4,2.48,2.93,5.08,4.67,7.69C46.55,45.25,47.52,46.69,48.57,48.16Z" transform="translate(0)" style="fill:#e5ef11;stroke:#fff;stroke-miterlimit:10"/>
    <path d="M60.26,50.16a.23.23,0,0,1,.07-.19c-.67-.64-1.36-1.24-2.09-1.81.21,1.3.49,2.47.76,3.64.07.07.21.07.28.13C59.63,51.38,59.91,50.79,60.26,50.16Z" transform="translate(0)" style="fill:#e5ef11;stroke:#fff;stroke-miterlimit:10"/>
    <path d="M60.4,50.07h0c-.07,0-.07.07-.07.13S60.33,50.16,60.4,50.07Z" transform="translate(0)" style="fill:#e5ef11;stroke:#fff;stroke-miterlimit:10"/>
    <path d="M60.26,50.16c-.35.59-.7,1.18-1,1.76.21.07.42.2.63.26C60,51.57,60.12,50.92,60.26,50.16Z" transform="translate(0)" style="fill:#e5ef11;stroke:#fff;stroke-miterlimit:10"/>
    <path d="M63.32,54.05c.21-.13.35-.26.55-.39a45.33,45.33,0,0,0-3.54-3.52c0,.06-.07.06-.07.13-.14.72-.28,1.37-.42,2A23.76,23.76,0,0,1,63.32,54.05Z" transform="translate(0)" style="fill:#e5ef11;stroke:#fff;stroke-miterlimit:10"/>
    <path d="M63.73,54.31c.14-.13.21-.33.35-.46-.07-.06-.14-.13-.14-.19-.21.13-.34.26-.55.39C63.51,54.13,63.62,54.22,63.73,54.31Z" transform="translate(0)" style="fill:#e5ef11;stroke:#fff;stroke-miterlimit:10"/>
    <path d="M68.47,60.89h.2c0-.07-.07-.13-.07-.2l-.2.2Z" transform="translate(0)" style="fill:#e5ef11;stroke:#fff;stroke-miterlimit:10"/>
    <path d="M68.4,60.89l.2-.2c0-.06-.06-.13-.06-.19s-.28.19-.42.26C68.19,60.76,68.26,60.82,68.4,60.89Z" transform="translate(0)" style="fill:#e5ef11;stroke:#fff;stroke-miterlimit:10"/>
    <path d="M67.63,60.56l.42.2c.14-.07.28-.2.42-.26A7.75,7.75,0,0,0,68,59.39a.75.75,0,0,1-.07.39A1.31,1.31,0,0,1,67.63,60.56Z" transform="translate(0)" style="fill:#e5ef11;stroke:#fff;stroke-miterlimit:10"/>
    <path d="M64.08,53.79c-.14.13-.21.32-.35.45a20.36,20.36,0,0,1,1.88,1.31C65.13,55,64.57,54.44,64.08,53.79Z" transform="translate(0)" style="fill:#e5ef11;stroke:#fff;stroke-miterlimit:10"/>
    <path d="M59,51.83a76.66,76.66,0,0,0-10.42-3.67A88,88,0,0,0,56.71,58a31.54,31.54,0,0,1,2.43-5.67A4.13,4.13,0,0,0,59,51.83Z" transform="translate(0)" style="fill:#e5ef11;stroke:#fff;stroke-miterlimit:10"/>
    <path d="M59.28,52c-.07-.06-.21-.06-.28-.13a3.5,3.5,0,0,1,.14.46C59.21,52.16,59.21,52,59.28,52Z" transform="translate(0)" style="fill:#e5ef11;stroke:#fff;stroke-miterlimit:10"/>
    <path d="M59.35,57.37a18.53,18.53,0,0,1,.28-3.32c-.14-.59-.35-1.17-.49-1.76A31.54,31.54,0,0,0,56.71,58c.35.39.69.71,1,1C58.24,58.48,58.79,57.89,59.35,57.37Z" transform="translate(0)" style="fill:#e5ef11;stroke:#fff;stroke-miterlimit:10"/><path d="M59.28,52c-.07.13-.14.2-.14.33.14.59.35,1.17.49,1.76.07-.59.14-1.17.28-1.83C59.7,52.16,59.49,52,59.28,52Z" transform="translate(0)" style="fill:#e5ef11;stroke:#fff;stroke-miterlimit:10"/>
    <path d="M59.63,54.05c-.14,1.17-.21,2.28-.28,3.32l1-1A23.08,23.08,0,0,1,59.63,54.05Z" transform="translate(0)" style="fill:#e5ef11;stroke:#fff;stroke-miterlimit:10"/>
    <path d="M63.32,54.05c-1-.59-2.16-1.24-3.41-1.83a16.17,16.17,0,0,0-.28,1.83c.28.84.49,1.63.77,2.34C61.3,55.61,62.27,54.83,63.32,54.05Z" transform="translate(0)" style="fill:#e5ef11;stroke:#fff;stroke-miterlimit:10"/>
    <path d="M59.7,60.82a16.68,16.68,0,0,1-.35-3.52,18.38,18.38,0,0,0-1.6,1.7Z" transform="translate(0)" style="fill:#e5ef11;stroke:#fff;stroke-miterlimit:10"/><path d="M59.84,61c.07-.13.07-.26.14-.32a14.53,14.53,0,0,1,1.18-2.41,13.31,13.31,0,0,1-.76-1.83l-1,1a13.45,13.45,0,0,0,.35,3.52S59.77,61,59.84,61Z" transform="translate(0)" style="fill:#e5ef11;stroke:#fff;stroke-miterlimit:10"/>
    <path d="M63.32,54.05c-1,.78-2,1.56-2.92,2.34.27.65.48,1.24.76,1.83a43.27,43.27,0,0,1,2.51-3.91A.71.71,0,0,0,63.32,54.05Z" transform="translate(0)" style="fill:#e5ef11;stroke:#fff;stroke-miterlimit:10"/>
    <path d="M61.79,59.39c-.21-.39-.42-.72-.63-1.17A17.86,17.86,0,0,0,60,60.63a2.83,2.83,0,0,1,.55-.65A2.18,2.18,0,0,1,61.79,59.39Z" transform="translate(0)" style="fill:#e5ef11;stroke:#fff;stroke-miterlimit:10"/>
    <path d="M67.63,60.56a3.88,3.88,0,0,0,.35-.78c0-.13.07-.26.07-.39a21.21,21.21,0,0,0-2.51-3.78,20.12,20.12,0,0,0-1.87-1.3,32.07,32.07,0,0,0-2.51,3.91l.63,1.17C63.18,59.06,65.2,59.52,67.63,60.56Z" transform="translate(0)" style="fill:#e5ef11;stroke:#fff;stroke-miterlimit:10"/>
    <path d="M73,60.5a.52.52,0,0,1,.28-.13,2.47,2.47,0,0,0-.63-.26A1.91,1.91,0,0,0,72,60c0,.2.07.39.07.59A5.54,5.54,0,0,0,73,60.5Z" transform="translate(0)" style="fill:#e5ef11;stroke:#fff;stroke-miterlimit:10"/>
    <path d="M70.27,61.08,72,60.69c0-.19-.07-.39-.07-.58a4.16,4.16,0,0,0-2.36.91C69.86,61,70.07,61.08,70.27,61.08Z" transform="translate(0)" style="fill:#e5ef11;stroke:#fff;stroke-miterlimit:10"/>
    <path d="M75.35,87.33A96.87,96.87,0,0,1,66,76.07c-.49,1.1-1.11,2.28-1.74,3.51a101.5,101.5,0,0,0,2,14,99.28,99.28,0,0,0,3.69,13.22,94,94,0,0,0,4.52-14.59C74.73,90.59,75.08,89,75.35,87.33Z" transform="translate(0)" style="fill:#e5ef11;stroke:#fff;stroke-miterlimit:10"/>
    <path d="M85.44,55.22c-2,1.56-4,3.06-6,4.36,2.92-.32,6.12-.58,9.46-.65a4.27,4.27,0,0,1,.84-.32A106.07,106.07,0,0,0,105.6,50a117,117,0,0,0-13.69,3.15C89.76,53.79,87.53,54.44,85.44,55.22Z" transform="translate(0)" style="fill:#e5ef11;stroke:#fff;stroke-miterlimit:10"/>
    <path d="M79.46,59.52a70.86,70.86,0,0,0,6-4.36A99.23,99.23,0,0,0,73.29,60.3c.07,0,.07.07.14.07C75.28,60.16,77.3,59.78,79.46,59.52Z" transform="translate(0)" style="fill:#e5ef11;stroke:#fff;stroke-miterlimit:10"/>
    <path d="M73.41,60.43c-.07,0-.07-.06-.14-.06a.6.6,0,0,1-.28.13C73.13,60.5,73.27,60.43,73.41,60.43Z" transform="translate(0)" style="fill:#e5ef11;stroke:#fff;stroke-miterlimit:10"/>
    <path d="M73,60.5l-.91.19V61C72.36,60.82,72.64,60.69,73,60.5Z" transform="translate(0)" style="fill:#e5ef11;stroke:#fff;stroke-miterlimit:10"/>
    <path d="M72.08,61v-.26l-1.74.39,1.26.2C71.74,61.16,72,61.08,72.08,61Z" transform="translate(0)" style="fill:#e5ef11;stroke:#fff;stroke-miterlimit:10"/>
    <path d="M88.92,58.87c-3.48,1.5-6.89,2.8-10.16,3.91a110.13,110.13,0,0,1,14.68,5c1.19.45,2.3,1,3.48,1.5.14-.07.21-.07.35-.13a103.29,103.29,0,0,0,19.55-7.69c-6-1.56-14.26-2.48-23.45-2.54C91.91,58.8,90.45,58.8,88.92,58.87Z" transform="translate(0)" style="fill:#e5ef11;stroke:#fff;stroke-miterlimit:10"/>
    <path d="M78.83,62.78c3.27-1.05,6.68-2.41,10.16-3.91-3.34.13-6.54.32-9.46.65-1.32.91-2.65,1.69-3.9,2.48C76.61,62.26,77.72,62.52,78.83,62.78Z" transform="translate(0)" style="fill:#e5ef11;stroke:#;stroke-miterlimit:10"/>
    <path d="M74.8,61.86l.76.2c1.25-.78,2.58-1.56,3.9-2.48-2.16.27-4.18.53-6,.92A3.09,3.09,0,0,1,74.8,61.86Z" transform="translate(0)" style="fill:#e5ef11;stroke:#fff;stroke-miterlimit:10"/>
    <path d="M72.08,61.34c.84.13,1.74.33,2.65.52a4.22,4.22,0,0,0-1.39-1.43c-.14,0-.28.07-.42.07L72,61A.75.75,0,0,1,72.08,61.34Z" transform="translate(0)" style="fill:#e5ef11;stroke:#fff;stroke-miterlimit:10"/>
    <path d="M72.08,61a3.67,3.67,0,0,0-.48.26c.21,0,.34.07.55.07A.49.49,0,0,1,72.08,61Z" transform="translate(0)" style="fill:#e5ef11;stroke:#fff;stroke-miterlimit:10"/>
    <path d="M69.3,61.28l.35-.26a4,4,0,0,0-.91-.07l-.07.07C68.88,61.08,69.09,61.21,69.3,61.28Z" transform="translate(0)" style="fill:#e5ef11;stroke:#fff;stroke-miterlimit:10"/>
    <path d="M68.67,61h0a.07.07,0,0,0,.07-.07H68.6C68.67,61,68.67,61,68.67,61Z" transform="translate(0)" style="fill:#e5ef11;stroke:#fff;stroke-miterlimit:10"/>
    <path d="M68.67,61V61h-.2A.25.25,0,0,1,68.67,61Z" transform="translate(0)" style="fill:#e5ef11;stroke:#fff;stroke-miterlimit:10"/>
    <path d="M69.37,61.34a7,7,0,0,0,1-.26c-.2,0-.41-.06-.62-.06a1.28,1.28,0,0,0-.35.26C69.3,61.28,69.3,61.34,69.37,61.34Z" transform="translate(0)" style="fill:#e5ef11;stroke:#fff;stroke-miterlimit:10"/>
    <path d="M84.33,72.09c1.18,1,2.36,2.15,3.48,3.26,1.81.06,3.68.13,5.56.13a126.13,126.13,0,0,0,14.54-.78,116,116,0,0,0-11-5.6A95.07,95.07,0,0,1,84.33,72.09Z" transform="translate(0)" style="fill:#e5ef11;stroke:#fff;stroke-miterlimit:10"/>
    <path d="M70,61.67c.21.06.34.13.55.19l1-.58-1.26-.2a7,7,0,0,0-1,.26A3.06,3.06,0,0,1,70,61.67Z" transform="translate(0)" style="fill:#e5ef11;stroke:#fff;stroke-miterlimit:10"/>
    <path d="M70.48,61.86c-.21-.06-.34-.19-.55-.19C70.14,61.73,70.27,61.8,70.48,61.86Z" transform="translate(0)" style="fill:#e5ef11;stroke:#fff;stroke-miterlimit:10"/>
    <path d="M78.83,62.78l-3.13,1a10.68,10.68,0,0,1,.49,1.76,87,87,0,0,1,8.14,6.58c4-.71,8.21-1.69,12.66-2.93-1.11-.52-2.29-1-3.48-1.5A120.4,120.4,0,0,0,78.83,62.78Z" transform="translate(0)" style="fill:#e5ef11;stroke:#fff;stroke-miterlimit:10"/>
    <path d="M75.08,62.32c.2.46.41.91.62,1.43l3.13-1c-1.11-.26-2.15-.52-3.2-.78A3.94,3.94,0,0,0,75.08,62.32Z" transform="translate(0)" style="fill:#e5ef11;stroke:#fff;stroke-miterlimit:10"/>
    <path d="M75.56,62l-.76-.2c.07.13.21.33.28.46A2.23,2.23,0,0,0,75.56,62Z" transform="translate(0)" style="fill:#e5ef11;stroke:#fff;stroke-miterlimit:10"/>
    <path d="M76.12,65.51a10.68,10.68,0,0,0-.49-1.76,10.75,10.75,0,0,0-1.46.46C74.8,64.6,75.49,65.06,76.12,65.51Z" transform="translate(0)" style="fill:#e5ef11;stroke:#fff;stroke-miterlimit:10"/>
    <path d="M73.06,63.43c.35.26.76.45,1.11.71a12.92,12.92,0,0,0,1.46-.45c-.21-.52-.42-1-.62-1.43A18.29,18.29,0,0,1,73.06,63.43Z" transform="translate(0)" style="fill:#e5ef11;stroke:#fff;stroke-miterlimit:10"/>
    <path d="M72.08,62.84c.35.2.63.39,1,.59.62-.33,1.32-.72,2-1.11a4.34,4.34,0,0,0-.28-.46c-.91-.19-1.81-.32-2.65-.52A10.76,10.76,0,0,1,72.08,62.84Z" transform="translate(0)" style="fill:#e5ef11;stroke:#fff;stroke-miterlimit:10"/>
    <path d="M72.08,62.84a10.76,10.76,0,0,0,.07-1.5c-.21,0-.34-.06-.55-.06l-1,.58a9.6,9.6,0,0,1,1,.66A3.08,3.08,0,0,0,72.08,62.84Z" transform="translate(0)" style="fill:#e5ef11;stroke:#fff;stroke-miterlimit:10"/>
    <path d="M71.6,62.52a5.09,5.09,0,0,0-1-.66.07.07,0,0,0-.07.07A5.91,5.91,0,0,0,71.6,62.52Z" transform="translate(0)" style="fill:#e5ef11;stroke:#fff;stroke-miterlimit:10"/>
    <path d="M59.77,61.16c0,.06,0,.13-.07.13S59.77,61.22,59.77,61.16Z" transform="translate(0)" style="fill:#e5ef11;stroke:#fff;stroke-miterlimit:10"/>
    <path d="M59.84,61h0a.23.23,0,0,0-.07.19h0A.23.23,0,0,0,59.84,61Z" transform="translate(0)" style="fill:#e5ef11;stroke:#fff;stroke-miterlimit:10"/>
    <path d="M59.91,61.54c-.07-.13-.07-.26-.14-.33s0,.07-.07.13a.25.25,0,0,1-.07.2C59.77,61.47,59.84,61.47,59.91,61.54Z" transform="translate(0)" style="fill:#e5ef11;stroke:#fff;stroke-miterlimit:10"/>
    <path d="M59.84,61c0,.06-.07.13-.07.19a2.55,2.55,0,0,1,.07.33c.21,0,.42.06.69.06A4.82,4.82,0,0,0,59.84,61Z" transform="translate(0)" style="fill:#e5ef11;stroke:#fff;stroke-miterlimit:10"/>
    <path d="M68.47,60.89a.07.07,0,0,1-.07-.07h0C68.4,60.89,68.4,60.89,68.47,60.89Z" transform="translate(0)" style="fill:#e5ef11;stroke:#fff;stroke-miterlimit:10"/>
    <path d="M68.33,60.89h0a.36.36,0,0,0-.21-.13c-.07.06-.14.06-.21.13Z" transform="translate(0)" style="fill:#e5ef11;stroke:#fff;stroke-miterlimit:10"/>
    <path d="M67.91,60.82c.07-.06.14-.06.21-.13l-.42-.19c-.07.13-.14.19-.21.32Z" transform="translate(0)" style="fill:#e5ef11;stroke:#fff;stroke-miterlimit:10"/>
    <path d="M60,60.63c-.07.13-.07.19-.14.32h0A.43.43,0,0,0,60,60.63Z" transform="translate(0)" style="fill:#e5ef11;stroke:#fff;stroke-miterlimit:10"/>
    <path d="M60.53,61.6a.61.61,0,0,1,.35.07,10.87,10.87,0,0,1,2-.65,7.57,7.57,0,0,1-1.11-1.63,3.55,3.55,0,0,0-1.26.59,2.83,2.83,0,0,0-.55.65c-.07.13-.07.26-.14.32Z" transform="translate(0)" style="fill:#e5ef11;stroke:#fff;stroke-miterlimit:10"/>
    <path d="M67.42,60.82a1.11,1.11,0,0,0,.21-.32c-2.43-1-4.45-1.5-5.84-1.18A10.64,10.64,0,0,0,62.9,61,32.46,32.46,0,0,1,67.42,60.82Z" transform="translate(0)" style="fill:#e5ef11;stroke:#fff;stroke-miterlimit:10"/>
    <path d="M81.2,80.76c-1.6-.72-3.13-1.5-4.59-2.28-.21,2.73-.63,5.73-1.19,8.85a7.83,7.83,0,0,0,1.12,1.11c2.78,2.8,5.56,5.34,8.21,7.62-.28-1.82-.63-3.77-1-5.66C83,87,82.1,83.75,81.2,80.76Z" transform="translate(0)" style="fill:#e5ef11;stroke:#fff;stroke-miterlimit:10"/>
    <path d="M67,73.79c-.28.71-.63,1.49-1,2.34A97.23,97.23,0,0,0,75.38,87.4a88.07,88.07,0,0,0,1.19-8.86,92.09,92.09,0,0,1-9.15-5.38A5.39,5.39,0,0,0,67,73.79Z" transform="translate(0)" style="fill:#e5ef11;stroke:#fff;stroke-miterlimit:10"/><path d="M87.81,75.41c-3.13-.13-6.06-.39-8.77-.71.77,1.89,1.46,4,2.16,6.12,1.67.78,3.41,1.5,5.22,2.28a107.74,107.74,0,0,0,12,4.17,108.08,108.08,0,0,0-8.76-10C89,76.59,88.43,76,87.81,75.41Z" transform="translate(0)" style="fill:#e5ef11;stroke:#fff;stroke-miterlimit:10"/>
    <path d="M68.74,61.47c.14-.06.28-.06.42-.13l.07-.06a4,4,0,0,0-.56-.26h0A1,1,0,0,1,68.74,61.47Z" transform="translate(0)" style="fill:#e5ef11;stroke:#fff;stroke-miterlimit:10"/>
    <path d="M68.67,61" transform="translate(0)" style="fill:#e5ef11;stroke:#fff;stroke-miterlimit:10"/>
    <path d="M68.67,61.54h.14c0-.13-.07-.33-.07-.46-.2.26-.41.46-.55.65.14-.06.28-.06.41-.13C68.54,61.54,68.6,61.54,68.67,61.54Z" transform="translate(0)" style="fill:#e5ef11;stroke:#fff;stroke-miterlimit:10"/>
    <path d="M68.33,60.89c-.42.39-.91.78-1.33,1.11.28-.07.56-.2.84-.27.07,0,.14-.06.21-.06A2.29,2.29,0,0,0,68.6,61h0c-.06-.07-.13-.07-.2-.13Z" transform="translate(0)" style="fill:#e5ef11;stroke:#fff;stroke-miterlimit:10"/>
    <path d="M65.13,62.39c.14.06.27.06.41.13.49-.2,1-.33,1.46-.52a7.44,7.44,0,0,0,1.33-1.11,1.35,1.35,0,0,1-.49-.07A28.06,28.06,0,0,1,65.13,62.39Z" transform="translate(0)" style="fill:#e5ef11;stroke:#fff;stroke-miterlimit:10"/>
    <path d="M67.91,60.82h-.49A5.45,5.45,0,0,1,65,62.32a.27.27,0,0,1,.21.07C66,61.93,67,61.41,67.91,60.82Z" transform="translate(0)" style="fill:#e5ef11;stroke:#fff;stroke-miterlimit:10"/>
    <path d="M62.9,61a6.1,6.1,0,0,0-2,.65,25.1,25.1,0,0,1,3.34.59A8.28,8.28,0,0,1,62.9,61Z" transform="translate(0)" style="fill:#e5ef11;stroke:#fff;stroke-miterlimit:10"/>
    <path d="M64.22,62.16a2.4,2.4,0,0,0,.7.13,5.45,5.45,0,0,0,2.43-1.5,24.41,24.41,0,0,0-4.52.2A7.07,7.07,0,0,0,64.22,62.16Z" transform="translate(0)" style="fill:#e5ef11;stroke:#fff;stroke-miterlimit:10"/>
    <path d="M76.54,78.54c1.46.78,3,1.5,4.59,2.28-.7-2.15-1.39-4.23-2.16-6.12-.76-.07-1.53-.2-2.22-.33C76.75,75.67,76.68,77,76.54,78.54Z" transform="translate(0)" style="fill:#e5ef11;stroke:#fff;stroke-miterlimit:10"/>
    <path d="M68.67,61.54h-.13a1,1,0,0,0-.42.13l-.07.06A1.13,1.13,0,0,1,68.67,61.54Z" transform="translate(0)" style="fill:#e5ef11;stroke:#fff;stroke-miterlimit:10"/><path d="M68.12,61.67c-.07,0-.14.06-.21.06S68,61.67,68.12,61.67Z" transform="translate(0)" style="fill:#e5ef11;stroke:#fff;stroke-miterlimit:10"/>
    <path d="M69.37,61.34s-.07,0-.07-.06l-.07.06Z" transform="translate(0)" style="fill:#e5ef11;stroke:#fff;stroke-miterlimit:10"/>
    <path d="M71,73.26a27,27,0,0,1-3.48-.32c-.07.06-.07.13-.14.19a91.9,91.9,0,0,0,9.12,5.41c.14-1.43.21-2.87.21-4.17C74.73,74.05,72.78,73.66,71,73.26Z" transform="translate(0)" style="fill:#e5ef11;stroke:#fff;stroke-miterlimit:10"/>
    <path d="M67.56,72.94a27,27,0,0,0,3.48.32c-1.11-.26-2.16-.52-3.13-.84C67.77,72.61,67.7,72.74,67.56,72.94Z" transform="translate(0)" style="fill:#e5ef11;stroke:#fff;stroke-miterlimit:10"/>
    <path d="M79,74.63c2.71.33,5.71.59,8.77.72-1.19-1.17-2.37-2.22-3.48-3.26-2.09.39-4.11.65-6,.85A14.72,14.72,0,0,0,79,74.63Z" transform="translate(0)" style="fill:#e5ef11;stroke:#fff;stroke-miterlimit:10"/>
    <path d="M69,61.47l.14-.13c-.14.07-.28.07-.42.13Z" transform="translate(0)" style="fill:#e5ef11;stroke:#fff;stroke-miterlimit:10"/>
    <path d="M68.74,61.47" transform="translate(0)" style="fill:#e5ef11;stroke:#fff;stroke-miterlimit:10"/>
    <path d="M66.59,62.78c.14-.13.21-.26.35-.39a4.1,4.1,0,0,1-.77.26h0C66.31,62.71,66.45,62.71,66.59,62.78Z" transform="translate(0)" style="fill:#e5ef11;stroke:#fff;stroke-miterlimit:10"/>
    <path d="M67,62.39a3,3,0,0,1,1-.72c-.28.06-.56.19-.84.26a6.44,6.44,0,0,1-.9.65A1.73,1.73,0,0,0,67,62.39Z" transform="translate(0)" style="fill:#e5ef11;stroke:#fff;stroke-miterlimit:10"/>
    <path d="M66.17,62.65" transform="translate(0)" style="fill:#e5ef11;stroke:#fff;stroke-miterlimit:10"/>
    <path d="M66.1,62.65h0A4.49,4.49,0,0,0,67,62c-.48.19-1,.32-1.46.52A3.5,3.5,0,0,1,66.1,62.65Z" transform="translate(0)" style="fill:#e5ef11;stroke:#fff;stroke-miterlimit:10"/>
    <path d="M76.81,73.07v1.24c.7.13,1.47.19,2.23.32-.21-.58-.49-1.17-.69-1.69C77.84,73,77.33,73.05,76.81,73.07Z" transform="translate(0)" style="fill:#e5ef11;stroke:#fff;stroke-miterlimit:10"/>
    <path d="M68.81,61.73a1.07,1.07,0,0,1,.28-.19h-.28Z" transform="translate(0)" style="fill:#e5ef11;stroke:#fff;stroke-miterlimit:10"/>
    <path d="M68.67,61.54l-.62.19a2.92,2.92,0,0,1-1.11.72c-.14.13-.21.26-.35.39.28.07.62.2.9.26a16.24,16.24,0,0,1,1.25-1.37v-.19C68.74,61.47,68.67,61.47,68.67,61.54Z" transform="translate(0)" style="fill:#e5ef11;stroke:#fff;stroke-miterlimit:10"/>
    <path d="M68.05,61.67c-.07,0-.07,0-.14.06a2.47,2.47,0,0,0-1,.72A5.49,5.49,0,0,0,68.05,61.67Z" transform="translate(0)" style="fill:#e5ef11;stroke:#fff;stroke-miterlimit:10"/><path d="M69,61.47a4.64,4.64,0,0,1,.91.13c-.21-.13-.42-.19-.63-.32s-.14,0-.14.06A.15.15,0,0,1,69,61.47Z" transform="translate(0)" style="fill:#e5ef11;stroke:#fff;stroke-miterlimit:10"/>
    <path d="M71,73.26c1.74.4,3.69.79,5.77,1.11V73.16C74.66,73.26,72.78,73.33,71,73.26Z" transform="translate(0)" style="fill:#e5ef11;stroke:#fff;stroke-miterlimit:10"/>
    <path d="M68.81,61.73A3.84,3.84,0,0,1,68.74,63c.56-.33,1.12-.72,1.74-1.11-.14-.07-.34-.2-.48-.26a2.17,2.17,0,0,0-.91-.13A.29.29,0,0,0,68.81,61.73Z" transform="translate(0)" style="fill:#e5ef11;stroke:#fff;stroke-miterlimit:10"/>
    <path d="M68.19,63.3c.14-.13.35-.2.48-.33a2.61,2.61,0,0,0,.07-1.3A14.71,14.71,0,0,0,67.49,63,5.89,5.89,0,0,0,68.19,63.3Z" transform="translate(0)" style="fill:#e5ef11;stroke:#fff;stroke-miterlimit:10"/>
    <path d="M76.68,69.55A36,36,0,0,1,78.28,73c1.87-.19,3.89-.45,6-.84a84.2,84.2,0,0,0-8.14-6.58A20.39,20.39,0,0,1,76.68,69.55Z" transform="translate(0)" style="fill:#e5ef11;stroke:#fff;stroke-miterlimit:10"/>
    <path d="M78.28,72.94c-.56-1.24-1-2.35-1.6-3.45.07,1.1.13,2.28.13,3.58A12.16,12.16,0,0,0,78.28,72.94Z" transform="translate(0)" style="fill:#e5ef11;stroke:#fff;stroke-miterlimit:10"/>
    <path d="M73.41,64.41a30,30,0,0,1,3.27,5.14,28.52,28.52,0,0,0-.56-4c-.7-.46-1.32-.91-2-1.37Z" transform="translate(0)" style="fill:#e5ef11;stroke:#fff;stroke-miterlimit:10"/>
    <path d="M73.41,64.41c.27-.07.48-.14.76-.2-.42-.26-.76-.52-1.11-.72l-.35.2A2.4,2.4,0,0,1,73.41,64.41Z" transform="translate(0)" style="fill:#e5ef11;stroke:#fff;stroke-miterlimit:10"/>
    <path d="M72.08,63a5.39,5.39,0,0,0,.7.65c.14-.06.21-.13.35-.19-.35-.2-.63-.39-1-.59C72.08,62.91,72.08,62.91,72.08,63Z" transform="translate(0)" style="fill:#e5ef11;stroke:#fff;stroke-miterlimit:10"/>
    <path d="M72.08,63v-.13c-.14-.13-.34-.19-.48-.32Z" transform="translate(0)" style="fill:#e5ef11;stroke:#fff;stroke-miterlimit:10"/>
    <path d="M71.46,64.86c-.07.13-.14.2-.21.33a2.5,2.5,0,0,1,.69,1.43c.14,1.37-1,2.74-3.06,4.1a10.51,10.51,0,0,1-1,1.76c1,.33,2,.59,3.13.85a44.46,44.46,0,0,0,5.77-.2,33,33,0,0,0-.13-3.58,26.32,26.32,0,0,0-3.27-5.14C72.78,64.54,72.08,64.73,71.46,64.86Z" transform="translate(0)" style="fill:#e5ef11;stroke:#fff;stroke-miterlimit:10"/><path d="M71.81,64.08a2.49,2.49,0,0,1-.35.78c.62-.13,1.32-.32,2-.52-.21-.26-.49-.52-.7-.78A4.17,4.17,0,0,1,71.81,64.08Z" transform="translate(0)" style="fill:#e5ef11;stroke:#fff;stroke-miterlimit:10"/>
    <path d="M72.71,63.62A7.18,7.18,0,0,0,72,63l-.2,1.17C72.15,64,72.43,63.75,72.71,63.62Z" transform="translate(0)" style="fill:#e5ef11;stroke:#fff;stroke-miterlimit:10"/>
    <path d="M71.25,65.16c.07-.13.14-.2.21-.33-.14.07-.28.07-.42.13Z" transform="translate(0)" style="fill:#e5ef11;stroke:#fff;stroke-miterlimit:10"/>
    <path d="M70.69,64.67c.14.13.28.19.35.32a1,1,0,0,0,.42-.13,3.88,3.88,0,0,0,.35-.78C71.46,64.27,71,64.47,70.69,64.67Z" transform="translate(0)" style="fill:#e5ef11;stroke:#fff;stroke-miterlimit:10"/>
    <path d="M70.48,61.93c-.62.39-1.18.72-1.74,1.11-.07.19-.14.32-.2.45a11,11,0,0,1,2.15,1.18c.35-.2.77-.4,1.12-.59a3.1,3.1,0,0,0,.2-1.17c-.14-.13-.34-.26-.48-.39Z" transform="translate(0)" style="fill:#e5ef11;stroke:#fff;stroke-miterlimit:10"/>
    <path d="M68.54,63.43c.06-.13.13-.33.2-.46-.14.13-.34.2-.48.33A.37.37,0,0,0,68.54,63.43Z" transform="translate(0)" style="fill:#e5ef11;stroke:#fff;stroke-miterlimit:10"/><path d="M64.08,76.85a51.32,51.32,0,0,1-5.22,4.43c-.76,2.34-1.39,4.88-2,7.49-.28,1-.49,2.15-.7,3.19a90.4,90.4,0,0,0,8-12.31C64.15,78.67,64.08,77.76,64.08,76.85Z" transform="translate(0)" style="fill:#e5ef11;stroke:#fff;stroke-miterlimit:10"/>
    <path d="M64.08,76.85c0,.91.07,1.82.14,2.8.63-1.24,1.25-2.41,1.74-3.52a3.82,3.82,0,0,0-.49-.65C65.06,75.87,64.57,76.39,64.08,76.85Z" transform="translate(0)" style="fill:#e5ef11;stroke:#fff;stroke-miterlimit:10"/>
    <path d="M65.47,75.41a3.53,3.53,0,0,0,.49.66c.35-.79.7-1.57,1-2.35A11.41,11.41,0,0,1,65.47,75.41Z" transform="translate(0)" style="fill:#e5ef11;stroke:#fff;stroke-miterlimit:10"/>
    <path d="M67,73.79a5,5,0,0,0,.48-.66c-.07-.06-.14-.06-.21-.13A2,2,0,0,0,67,73.79Z" transform="translate(0)" style="fill:#e5ef11;stroke:#fff;stroke-miterlimit:10"/>
    <path d="M67.21,73c.07.07.14.07.21.13s.07-.13.14-.19-.21-.07-.28-.07S67.21,72.94,67.21,73Z" transform="translate(0)" style="fill:#e5ef11;stroke:#fff;stroke-miterlimit:10"/>
    <path d="M67.42,72.29l-.21.58c.07,0,.21.07.28.07.14-.2.21-.33.35-.52C67.77,72.35,67.63,72.35,67.42,72.29Z" transform="translate(0)" style="fill:#e5ef11;stroke:#fff;stroke-miterlimit:10"/>
    <path d="M67.42,72.29c.14.06.28.06.42.13a9.86,9.86,0,0,0,1-1.76c-.34.19-.69.45-1.11.65A4.85,4.85,0,0,1,67.42,72.29Z" transform="translate(0)" style="fill:#e5ef11;stroke:#fff;stroke-miterlimit:10"/>
    <path d="M58.86,81.28c.84-2.61,1.67-5,2.58-7.23a98.3,98.3,0,0,1-15.72,3.58c-1.81,2-3.69,4.17-5.5,6.45a105.4,105.4,0,0,0-8.49,12.37,113.24,113.24,0,0,0,13-6.12A106.57,106.57,0,0,0,58.86,81.28Z" transform="translate(0)" style="fill:#e5ef11;stroke:#fff;stroke-miterlimit:10"/>
    <path d="M64.08,73.33c-.07-.07-.07-.2-.14-.26-.76.32-1.6.59-2.5.91-.91,2.22-1.81,4.69-2.58,7.23a56.54,56.54,0,0,0,5.22-4.43C64,75.61,64.08,74.44,64.08,73.33Z" transform="translate(0)" style="fill:#e5ef11;stroke:#fff;stroke-miterlimit:10"/>
    <path d="M64.08,73.33a29.53,29.53,0,0,0,0,3.52c.49-.46,1-1,1.39-1.44C65,74.7,64.5,74.05,64.08,73.33Z" transform="translate(0)" style="fill:#e5ef11;stroke:#fff;stroke-miterlimit:10"/>
    <path d="M64,73.16c.07.07.07.2.14.26V73.1A.25.25,0,0,0,64,73.16Z" transform="translate(0)" style="fill:#e5ef11;stroke:#fff;stroke-miterlimit:10"/>
    <path d="M67,72.81c-.48-.13-1-.26-1.39-.39L64.14,73v.33c.42.65.91,1.37,1.39,2.08A13.83,13.83,0,0,0,67,73.72c.07-.26.21-.52.28-.78A.37.37,0,0,1,67,72.81Z" transform="translate(0)" style="fill:#e5ef11;stroke:#fff;stroke-miterlimit:10"/>
    <path d="M65.54,72.42c.42.13.91.26,1.4.39l-1-.65C66,72.29,65.75,72.35,65.54,72.42Z" transform="translate(0)" style="fill:#e5ef11;stroke:#fff;stroke-miterlimit:10"/>
    <path d="M67.21,73c0-.06,0-.06.07-.13s-.14-.06-.28-.06Z" transform="translate(0)" style="fill:#e5ef11;stroke:#fff;stroke-miterlimit:10"/>
    <path d="M66.1,72.16c.28.19.56.39.9.65.07,0,.14.06.28.06l.21-.58c-.28-.13-.62-.2-.9-.33A3,3,0,0,0,66.1,72.16Z" transform="translate(0)" style="fill:#e5ef11;stroke:#fff;stroke-miterlimit:10"/>
    <path d="M66.52,72c.28.13.62.2.9.33a6,6,0,0,0,.28-.91A10.86,10.86,0,0,1,66.52,72Z" transform="translate(0)" style="fill:#e5ef11;stroke:#fff;stroke-miterlimit:10"/>
    <path d="M63.53,39.39c.9-2.41,1.94-5,3.13-7.49A101.63,101.63,0,0,1,74,18.61C72.6,7.93,69.47.5,65.85.5,61.12.5,57.29,13.27,57,29.42,58.27,31.18,59.52,33,60.84,35,61.72,36.46,62.62,37.89,63.53,39.39Z" transform="translate(0)" style="fill:#e5ef11;stroke:#fff;stroke-miterlimit:10"/>
    <path d="M74.73,31.9A86.93,86.93,0,0,1,89.48,19.52c1.39-7,1-11.92-1.6-12.89-3.13-1.24-8.56,3.64-14.06,12a94.19,94.19,0,0,1,.84,13A.64.64,0,0,1,74.73,31.9Z" transform="translate(0)" style="fill:#e5ef11;stroke:#fff;stroke-miterlimit:10"/>
    <path d="M100.47,24.28c1.53-3.78,1.67-6.58.21-7.75-1.88-1.5-6-.26-11.13,3.06a86.87,86.87,0,0,1-4.18,13.57A66.63,66.63,0,0,1,100.47,24.28Z" transform="translate(0)" style="fill:#e5ef11;stroke:#fff;stroke-miterlimit:10"/>
    <path d="M104.51,36.16c4.24-5.8,6-10.42,4.1-12.31-1.32-1.31-4.24-1.11-8.14.39-1.74,4.3-5.22,9.9-10,15.76A92.27,92.27,0,0,1,104.51,36.16Z" transform="translate(0)" style="fill:#e5ef11;stroke:#fff;stroke-miterlimit:10"/>
    <path d="M90.31,51.16c-1.6,1.43-3.27,2.74-4.87,4,2.09-.72,4.32-1.43,6.54-2.08a131.66,131.66,0,0,1,13.71-3.2c7.44-5,11.62-9.64,10.29-12.31-1-2.08-5.35-2.47-11.47-1.43A96.15,96.15,0,0,1,90.31,51.16Z" transform="translate(0)" style="fill:#e5ef11;stroke:#fff;stroke-miterlimit:10"/>
    <path d="M50.72,61A103.22,103.22,0,0,1,36,52.94a108.33,108.33,0,0,1-12.52-9.31C12,42.84,3.64,44.21,3,47.53c-1,4.56,12.8,10.95,30.82,14.33l1.25.2c1-.13,2-.26,3-.33A110.08,110.08,0,0,1,50.72,61Z" transform="translate(0)" style="fill:#e5ef11;stroke:#fff;stroke-miterlimit:10"/>
    <path d="M48.57,48.16c-1-1.43-2-2.87-3-4.36-1.74-2.61-3.27-5.22-4.67-7.69-13.08-7.62-24.76-11-27.2-7.62-1.95,2.6,2.16,8.6,9.74,15.18a128,128,0,0,1,13.78,1.82A105,105,0,0,1,48.57,48.16Z" transform="translate(0)" style="fill:#e5ef11;stroke:#fff;stroke-miterlimit:10"/>
    <path d="M58.24,48.16a91.71,91.71,0,0,1-1.39-16.62V29.42C48.36,18,39.38,10.73,35.77,12.88c-3.48,2-1.12,11.66,5.14,23.12,1.74,1,3.48,2,5.22,3.2A107,107,0,0,1,58.24,48.16Z" transform="translate(0)" style="fill:#e5ef11;stroke:#fff;stroke-miterlimit:10"/><path d="M76.47,88.51c-.35-.39-.77-.78-1.12-1.11-.27,1.63-.62,3.26-1,4.89a96.57,96.57,0,0,1-4.52,14.59c3.55,9.9,8,16.35,11.48,15.7,4.31-.79,5.63-12.12,3.41-26.45A108,108,0,0,1,76.47,88.51Z" transform="translate(0)" style="fill:#e5ef11;stroke:#fff;stroke-miterlimit:10"/>
    <path d="M64.22,79.65a94,94,0,0,1-8,12.31c-3.06,15.37-2.09,28.08,2.37,29,3.27.65,7.58-5,11.2-14A107.93,107.93,0,0,1,66.1,93.74,94.07,94.07,0,0,1,64.22,79.65Z" transform="translate(0)" style="fill:#e5ef11;stroke:#fff;stroke-miterlimit:10"/><path d="M88.92,58.87c1.46-.07,3-.07,4.52-.07a102.18,102.18,0,0,1,23.45,2.54c6.54-3.51,10.3-7,9.46-9.51-1-3.19-9.46-3.78-20.66-1.89a113.47,113.47,0,0,1-15.86,8.6C89.48,58.67,89.2,58.74,88.92,58.87Z" transform="translate(0)" style="fill:#e5ef11;stroke:#fff;stroke-miterlimit:10"/>
    <path d="M126.63,67.34c0-2.35-3.69-4.43-9.74-6A102.62,102.62,0,0,1,97.34,69c-.14.07-.21.07-.35.13a116,116,0,0,1,11,5.6C119,73.46,126.63,70.66,126.63,67.34Z" transform="translate(0)" style="fill:#e5ef11;stroke:#fff;stroke-miterlimit:10"/><path d="M87.81,75.41c.62.59,1.18,1.18,1.81,1.76a106.61,106.61,0,0,1,8.76,10c11.55,3.33,20.53,3.72,22,.53,1.32-2.87-3.76-8-12.39-13a126.13,126.13,0,0,1-14.54.78C91.49,75.54,89.62,75.48,87.81,75.41Z" transform="translate(0)" style="fill:#e5ef11;stroke:#fff;stroke-miterlimit:10"/>
    <path d="M81.2,80.76c.9,3,1.81,6.25,2.5,9.64.42,1.95.77,3.83,1,5.66,9.46,7.89,18,12,20.8,9.58,2.64-2.28-.42-9.71-7.17-18.5-3.75-1.11-7.86-2.48-12-4.17C84.61,82.32,82.87,81.54,81.2,80.76Z" transform="translate(0)" style="fill:#e5ef11;stroke:#fff;stroke-miterlimit:10"/>
    <path d="M58.86,81.28a110.63,110.63,0,0,1-14.12,9,120.27,120.27,0,0,1-13,6.12c-5,8.67-6.82,15.64-4.1,17.53,4,2.73,16-6.19,27-19.94.56-.71,1.11-1.36,1.6-2.08.21-1,.42-2.08.7-3.19C57.47,86.16,58.17,83.62,58.86,81.28Z" transform="translate(0)" style="fill:#e5ef11;stroke:#fff;stroke-miterlimit:10"/>
    <path d="M45.72,77.56c-1.88.26-3.83.52-5.85.72-3.27.33-6.47.52-9.53.65C17.47,86.75,9.26,95.16,11.48,98.67c1.74,2.87,9.88,1.76,20.18-2.28A102.7,102.7,0,0,1,40.15,84C42,81.73,43.91,79.58,45.72,77.56Z" transform="translate(0)" style="fill:#e5ef11;stroke:#fff;stroke-miterlimit:10"/>
    <path d="M57.68,66.88c.42-.26.84-.59,1.25-.85-1.53-.32-2.57-.84-3.06-1.76a1,1,0,0,1-.14-.45,106.58,106.58,0,0,1-20.87-1.76c-16.77,2.08-29.5,7-29,11.33.42,3.78,10.71,5.93,24.49,5.54,1.74-1,3.48-2.08,5.36-3.06A97.53,97.53,0,0,1,57.68,66.88Z" transform="translate(0)" style="fill:#e5ef11;stroke:#fff;stroke-miterlimit:10"/>
    <path d="M59.21,64.21a3.07,3.07,0,0,1-1.67-.46,14.47,14.47,0,0,1-1.74.07,3.88,3.88,0,0,0,.14.45c.42.92,1.53,1.5,3.06,1.76a6.22,6.22,0,0,1,.56-.32A3.4,3.4,0,0,1,59.21,64.21Z" transform="translate(0)" style="fill:#e5ef11;stroke:#fff;stroke-miterlimit:10"/>
    <path d="M57.68,63.69h-.14a3.48,3.48,0,0,0,1.67.45v-.06A6.74,6.74,0,0,1,57.68,63.69Z" transform="translate(0)" style="fill:#e5ef11;stroke:#fff;stroke-miterlimit:10"/>
    <path d="M59.28,64.21h-.14a3.12,3.12,0,0,0,.35,1.5c.07,0,.07-.07.14-.07C59.49,65.16,59.35,64.6,59.28,64.21Z" transform="translate(0)" style="fill:#e5ef11;stroke:#fff;stroke-miterlimit:10"/>
    <path d="M59.28,64.16h-.14v.07C59.21,64.23,59.28,64.23,59.28,64.16Z" transform="translate(0)" style="fill:#e5ef11;stroke:#fff;stroke-miterlimit:10"/>
    <path d="M55.8,63.82a3,3,0,0,1-.07-.78c-1.6-.59-3.27-1.24-5-2A125.9,125.9,0,0,0,38,61.69c-1,.13-2,.19-3,.33A100.76,100.76,0,0,0,55.8,63.82Z" transform="translate(0)" style="fill:#e5ef11;stroke:#fff;stroke-miterlimit:10"/>
    <path d="M57.33,63.56c-.48-.2-1-.33-1.6-.52a3,3,0,0,0,.07.78c.63,0,1.19-.07,1.74-.07C57.4,63.69,57.33,63.62,57.33,63.56Z" transform="translate(0)" style="fill:#e5ef11;stroke:#fff;stroke-miterlimit:10"/>
    <path d="M57.33,63.56c.07.06.14.06.21.13h.14A.56.56,0,0,1,57.33,63.56Z" transform="translate(0)" style="fill:#e5ef11;stroke:#fff;stroke-miterlimit:10"/>
    <path d="M57.68,63.69c.49.13,1,.32,1.53.45v-.58A13.16,13.16,0,0,1,57.68,63.69Z" transform="translate(0)" style="fill:#e5ef11;stroke:#fff;stroke-miterlimit:10"/>
    <path d="M59.35,63.56h-.14v.6h.14A.88.88,0,0,1,59.35,63.56Z" transform="translate(0)" style="fill:#e5ef11;stroke:#fff;stroke-miterlimit:10"/>
    <path d="M56.22,61.21c-1.74-.13-3.62-.19-5.57-.19,1.74.78,3.41,1.43,5,2a7.75,7.75,0,0,1,.56-1.83Z" transform="translate(0)" style="fill:#e5ef11;stroke:#fff;stroke-miterlimit:10"/>
    <path d="M56.29,61.21" transform="translate(0)" style="fill:#e5ef11;stroke:#fff;stroke-miterlimit:10"/>
    <path d="M57.26,63.56a3.17,3.17,0,0,1-1-2.35A4.93,4.93,0,0,0,55.7,63c.56.19,1.12.39,1.6.52Z" transform="translate(0)" style="fill:#e5ef11;stroke:#fff;stroke-miterlimit:10"/>
    <path d="M59.21,63.56a8.83,8.83,0,0,1,.49-2.09c-1.11-.13-2.23-.19-3.41-.26v.07a3.18,3.18,0,0,0,1,2.34h0c.14.07.28.07.35.13Z" transform="translate(0)" style="fill:#e5ef11;stroke:#fff;stroke-miterlimit:10"/>
    <path d="M59.49,63c0-.06.07-.13.14-.19a8.16,8.16,0,0,1,.07-1.31h0a8.83,8.83,0,0,0-.49,2.09h.14A1.75,1.75,0,0,1,59.49,63Z" transform="translate(0)" style="fill:#e5ef11;stroke:#fff;stroke-miterlimit:10"/>
    <path d="M59.84,64.34a2.72,2.72,0,0,0-.49-.13h-.07a6,6,0,0,0,.42,1.43l.42-.19C60,65,59.91,64.67,59.84,64.34Z" transform="translate(0)" style="fill:#e5ef11;stroke:#fff;stroke-miterlimit:10"/>
    <path d="M59.28,64.16h0C59.35,64.21,59.35,64.16,59.28,64.16Z" transform="translate(0)" style="fill:#e5ef11;stroke:#fff;stroke-miterlimit:10"/>
    <path d="M59.35,64.21c.14.06.28.06.49.13v-.13Z" transform="translate(0)" style="fill:#e5ef11;stroke:#fff;stroke-miterlimit:10"/>
    <path d="M59.77,64.16c-.07-.19-.07-.45-.14-.65a.61.61,0,0,0-.35.07,1.88,1.88,0,0,0,0,.58h.07A.45.45,0,0,0,59.77,64.16Z" transform="translate(0)" style="fill:#e5ef11;stroke:#fff;stroke-miterlimit:10"/>
    <path d="M59.49,63a1.75,1.75,0,0,0-.14.59.61.61,0,0,0,.35-.07,2.81,2.81,0,0,1-.07-.71C59.56,62.84,59.49,62.91,59.49,63Z" transform="translate(0)" style="fill:#e5ef11;stroke:#fff;stroke-miterlimit:10"/>
    <path d="M60.88,61.6a.7.7,0,0,1-.35-.06c.07.06.14.06.14.13A.27.27,0,0,0,60.88,61.6Z" transform="translate(0)" style="fill:#e5ef11;stroke:#fff;stroke-miterlimit:10"/>
    <path d="M59.84,64.34a5.7,5.7,0,0,0,.28,1,12.12,12.12,0,0,1,1.39-.71C61,64.54,60.4,64.47,59.84,64.34Z" transform="translate(0)" style="fill:#e5ef11;stroke:#fff;stroke-miterlimit:10"/>
    <path d="M61.72,64.54a8.7,8.7,0,0,1,.9-.59,3.88,3.88,0,0,1-.83-.13,17.22,17.22,0,0,1-2,.39v.13l1.67.39A2.48,2.48,0,0,1,61.72,64.54Z" transform="translate(0)" style="fill:#e5ef11;stroke:#fff;stroke-miterlimit:10"/>
    <path d="M62.83,63.43a6.85,6.85,0,0,1-1,.32,2.93,2.93,0,0,0,.83.13c.14-.13.35-.19.49-.32C63,63.56,63,63.49,62.83,63.43Z" transform="translate(0)" style="fill:#e5ef11;stroke:#fff;stroke-miterlimit:10"/>
    <path d="M61.72,63.75a6,6,0,0,1-.7-.39l-1.39.2a2.1,2.1,0,0,0,.14.65,13.59,13.59,0,0,0,2-.39C61.79,63.75,61.79,63.75,61.72,63.75Z" transform="translate(0)" style="fill:#e5ef11;stroke:#fff;stroke-miterlimit:10"/>
    <path d="M62.41,63.1c-.41.07-.9.2-1.32.26a1.36,1.36,0,0,0,.7.39h.07c.34-.13.69-.19,1-.32A3.72,3.72,0,0,1,62.41,63.1Z" transform="translate(0)" style="fill:#e5ef11;stroke:#fff;stroke-miterlimit:10"/>
    <path d="M60.12,62.16a2.5,2.5,0,0,0-.56.65c0,.26.07.52.07.71L61,63.33A3.43,3.43,0,0,1,60.12,62.16Z" transform="translate(0)" style="fill:#e5ef11;stroke:#fff;stroke-miterlimit:10"/>
    <path d="M60.74,61.73a3.69,3.69,0,0,0-.55.4,2.8,2.8,0,0,0,.9,1.17A8.33,8.33,0,0,0,62.41,63C61.86,62.65,61.3,62.16,60.74,61.73Z" transform="translate(0)" style="fill:#e5ef11;stroke:#fff;stroke-miterlimit:10"/>
    <path d="M64.92,62.52c-.7.32-1.39.65-2.09.91.07.06.21.13.28.19a13.22,13.22,0,0,1,2.16-1C65.2,62.58,65.06,62.58,64.92,62.52Z" transform="translate(0)" style="fill:#e5ef11;stroke:#fff;stroke-miterlimit:10"/>
    <path d="M65.33,62.65c.07-.07.21-.07.28-.13-.14-.07-.28-.07-.41-.13s-.14.06-.21.13S65.2,62.58,65.33,62.65Z" transform="translate(0)" style="fill:#e5ef11;stroke:#fff;stroke-miterlimit:10"/>
    <path d="M64.92,62.52c-.07,0-.14-.07-.21-.07a16,16,0,0,1-2.37.65,2.63,2.63,0,0,0,.49.33A14.36,14.36,0,0,0,64.92,62.52Z" transform="translate(0)" style="fill:#e5ef11;stroke:#fff;stroke-miterlimit:10"/>
    <path d="M65.13,62.39a.27.27,0,0,1-.21-.07c-.07,0-.14.07-.21.07s.14.06.21.06A.26.26,0,0,0,65.13,62.39Z" transform="translate(0)" style="fill:#e5ef11;stroke:#fff;stroke-miterlimit:10"/>
    <path d="M62.41,63.1a19.81,19.81,0,0,0,2.37-.65,1.77,1.77,0,0,1-.49-.26L61,61.6c-.07,0-.14.07-.21.13Z" transform="translate(0)" style="fill:#e5ef11;stroke:#fff;stroke-miterlimit:10"/>
    <path d="M64.22,62.16c.14.07.35.2.49.26s.14-.06.21-.06A4.57,4.57,0,0,1,64.22,62.16Z" transform="translate(0)" style="fill:#e5ef11;stroke:#fff;stroke-miterlimit:10"/>
    <path d="M63.46,63.88a3.41,3.41,0,0,1-.84.07,8.7,8.7,0,0,0-.9.59A13.53,13.53,0,0,1,63.46,63.88Z" transform="translate(0)" style="fill:#e5ef11;stroke:#fff;stroke-miterlimit:10"/>
    <path d="M63.11,63.62a2.63,2.63,0,0,0-.49.33,3.41,3.41,0,0,0,.84-.07A.75.75,0,0,0,63.11,63.62Z" transform="translate(0)" style="fill:#e5ef11;stroke:#fff;stroke-miterlimit:10"/>
    <path d="M63.46,63.88h0A7.68,7.68,0,0,1,66,63.62c.21-.32.35-.58.56-.84-.14-.07-.35-.07-.49-.13A7.42,7.42,0,0,1,63.46,63.88Z" transform="translate(0)" style="fill:#e5ef11;stroke:#fff;stroke-miterlimit:10"/>
    <path d="M65.33,62.65a22,22,0,0,0-2.15,1,1.28,1.28,0,0,1,.35.26,6.34,6.34,0,0,0,2.64-1.23h-.84Z" transform="translate(0)" style="fill:#e5ef11;stroke:#fff;stroke-miterlimit:10"/>
    <path d="M65.82,62.65h.35c-.14-.07-.35-.07-.49-.13s-.21.06-.28.13Z" transform="translate(0)" style="fill:#e5ef11;stroke:#fff;stroke-miterlimit:10"/>
    <path d="M66.87,63.88c.2-.26.41-.58.62-.84a3.2,3.2,0,0,0-.9-.26,4,4,0,0,0-.56.84A3.55,3.55,0,0,1,66.87,63.88Z" transform="translate(0)" style="fill:#e5ef11;stroke:#fff;stroke-miterlimit:10"/>
    <path d="M67.14,64.08c.35-.26.7-.46,1-.72-.21-.06-.49-.19-.7-.26a7.39,7.39,0,0,0-.62.85A.34.34,0,0,1,67.14,64.08Z" transform="translate(0)" style="fill:#e5ef11;stroke:#fff;stroke-miterlimit:10"/>
    <path d="M70.55,65.84a3.27,3.27,0,0,1-2.15.32,3,3,0,0,1,.07.79,5,5,0,0,1,.55.58,3.46,3.46,0,0,1-.14,3.19c2.09-1.36,3.2-2.73,3.06-4.1a2.5,2.5,0,0,0-.69-1.43A3.32,3.32,0,0,1,70.55,65.84Z" transform="translate(0)" style="fill:#e5ef11;stroke:#fff;stroke-miterlimit:10"/>
    <path d="M68.88,65.45c-.21.06-.41.19-.62.26a.75.75,0,0,1,.07.39,2.94,2.94,0,0,0,2.15-.33,2.07,2.07,0,0,0,.7-.65L71,64.93A12.52,12.52,0,0,1,68.88,65.45Z" transform="translate(0)" style="fill:#e5ef11;stroke:#fff;stroke-miterlimit:10"/>
    <path d="M68.26,65.71c.21-.07.41-.2.62-.26-.21.06-.41.06-.69.13C68.26,65.64,68.26,65.64,68.26,65.71Z" transform="translate(0)" style="fill:#e5ef11;stroke:#fff;stroke-miterlimit:10"/>
    <path d="M71,65l-.35-.32c-.62.26-1.18.52-1.74.78Z" transform="translate(0)" style="fill:#e5ef11;stroke:#fff;stroke-miterlimit:10"/>
    <path d="M68.4,63.69a4.06,4.06,0,0,1-.77.72,4.78,4.78,0,0,1,.7,1.17c.21-.07.41-.07.69-.13.56-.26,1.19-.52,1.74-.78a7,7,0,0,0-2.16-1.18C68.47,63.56,68.4,63.62,68.4,63.69Z" transform="translate(0)" style="fill:#e5ef11;stroke:#fff;stroke-miterlimit:10"/>
    <path d="M67.14,64.08h0c.14.13.28.19.42.33a2.13,2.13,0,0,0,.77-.72.51.51,0,0,0,.14-.26c-.07-.07-.21-.07-.28-.13Z" transform="translate(0)" style="fill:#e5ef11;stroke:#fff;stroke-miterlimit:10"/><path d="M60.12,66.36a.36.36,0,0,0-.21-.13h0c-.35-.07-.63-.07-1-.13-.43.26-.85.55-1.25.85a18.45,18.45,0,0,1,2.44-.59Z" transform="translate(0)" style="fill:#e5ef11;stroke:#fff;stroke-miterlimit:10"/>
    <path d="M59.91,66.16h0l.21.2a.21.21,0,0,0-.07-.13C60,66.16,60,66.16,59.91,66.16Z" transform="translate(0)" style="fill:#e5ef11;stroke:#fff;stroke-miterlimit:10"/>
    <path d="M59.56,65.71A6.22,6.22,0,0,1,59,66a4.22,4.22,0,0,0,1,.13A1.27,1.27,0,0,1,59.56,65.71Z" transform="translate(0)" style="fill:#e5ef11;stroke:#fff;stroke-miterlimit:10"/>
    <path d="M59.7,65.58c-.07,0-.07.06-.14.06a2.06,2.06,0,0,0,.35.52h.14A2.63,2.63,0,0,1,59.7,65.58Z" transform="translate(0)" style="fill:#e5ef11;stroke:#fff;stroke-miterlimit:10"/>
    <path d="M60.12,66.36" transform="translate(0)" style="fill:#e5ef11;stroke:#fff;stroke-miterlimit:10"/>
    <path d="M60.33,66.29v-.06H60a.21.21,0,0,0,.07.13h0C60.19,66.36,60.26,66.29,60.33,66.29Z" transform="translate(0)" style="fill:#e5ef11;stroke:#fff;stroke-miterlimit:10"/>
    <path d="M60.12,65.38l-.42.2a2.63,2.63,0,0,0,.35.58h.35A3.63,3.63,0,0,1,60.12,65.38Z" transform="translate(0)" style="fill:#e5ef11;stroke:#fff;stroke-miterlimit:10"/>
    <path d="M60.4,66.23h0v.06h.06A.06.06,0,0,1,60.4,66.23Z" transform="translate(0)" style="fill:#e5ef11;stroke:#fff;stroke-miterlimit:10"/>
    <path d="M60.4,66.23" transform="translate(0)" style="fill:#e5ef11;stroke:#fff;stroke-miterlimit:10"/>
    <path d="M61.58,64.67h-.14c-.42.19-.91.45-1.39.71.07.26.21.52.28.85A5.88,5.88,0,0,1,61.58,64.67Z" transform="translate(0)" style="fill:#e5ef11;stroke:#fff;stroke-miterlimit:10"/>
    <path d="M61.44,64.67h.14l.14-.13A1.43,1.43,0,0,1,61.44,64.67Z" transform="translate(0)" style="fill:#e5ef11;stroke:#fff;stroke-miterlimit:10"/>
    <path d="M60.4,66.29c.06,0,.2-.06.27-.06H60.4Z" transform="translate(0)" style="fill:#e5ef11;stroke:#fff;stroke-miterlimit:10"/>
    <path d="M65,65.9l.21-.19c.07-.2.13-.39.2-.65-.07,0-.07-.07-.13-.07a15.22,15.22,0,0,1-3.69-.32,4.29,4.29,0,0,0-1.18,1.49h.27A27.17,27.17,0,0,1,65,65.9Z" transform="translate(0)" style="fill:#e5ef11;stroke:#fff;stroke-miterlimit:10"/>
    <path d="M61.72,64.54l-.14.13a15.22,15.22,0,0,0,3.69.32,16,16,0,0,1-1.81-1.11A13.53,13.53,0,0,0,61.72,64.54Z" transform="translate(0)" style="fill:#e5ef11;stroke:#fff;stroke-miterlimit:10"/>
    <path d="M65.27,65c.06,0,.06.07.13.07V65Z" transform="translate(0)" style="fill:#e5ef11;stroke:#fff;stroke-miterlimit:10"/>
    <path d="M66,63.62a5.22,5.22,0,0,0-2.57.26A16,16,0,0,0,65.23,65h.13C65.55,64.52,65.76,64.06,66,63.62Z" transform="translate(0)" style="fill:#e5ef11;stroke:#fff;stroke-miterlimit:10"/>
    <path d="M65.4,65.06c-.07.19-.13.39-.2.65l.48-.46A1.07,1.07,0,0,0,65.4,65.06Z" transform="translate(0)" style="fill:#e5ef11;stroke:#fff;stroke-miterlimit:10"/>
    <path d="M66.1,64.93a2.25,2.25,0,0,1-.63.06v.07a.6.6,0,0,0,.28.13A1.28,1.28,0,0,1,66.1,64.93Z" transform="translate(0)" style="fill:#e5ef11;stroke:#fff;stroke-miterlimit:10"/>
    <path d="M66,63.62c-.23.44-.44.9-.63,1.37.21,0,.42-.06.63-.06l.14-.13a9.36,9.36,0,0,1,.63-.92A2.34,2.34,0,0,0,66,63.62Z" transform="translate(0)" style="fill:#e5ef11;stroke:#fff;stroke-miterlimit:10"/>
    <path d="M66.24,64.8a5.08,5.08,0,0,1,1-.72C67.17,64,67,64,67,63.88A4.35,4.35,0,0,0,66.24,64.8Z" transform="translate(0)" style="fill:#e5ef11;stroke:#fff;stroke-miterlimit:10"/>
    <path d="M65,65.9h.14c0-.06.07-.13.07-.26A.75.75,0,0,1,65,65.9Z" transform="translate(0)" style="fill:#e5ef11;stroke:#fff;stroke-miterlimit:10"/>
    <path d="M65.89,65.32a.27.27,0,0,1-.14-.07,2.62,2.62,0,0,0-.48.46c0,.06-.07.13-.07.26h.34A1.78,1.78,0,0,1,65.89,65.32Z" transform="translate(0)" style="fill:#e5ef11;stroke:#fff;stroke-miterlimit:10"/>
    <path d="M65.75,65.16a.35.35,0,0,1,.14.06c.07-.13.21-.26.28-.39H66.1Z" transform="translate(0)" style="fill:#e5ef11;stroke:#fff;stroke-miterlimit:10"/>
    <path d="M66.17,64.86c0-.06.07-.06.07-.06S66.1,64.86,66.17,64.86Z" transform="translate(0)" style="fill:#e5ef11;stroke:#fff;stroke-miterlimit:10"/>
    <path d="M67,66.16a3.68,3.68,0,0,1,1.47.72c0-.26-.07-.52-.07-.78a4.15,4.15,0,0,1-.77-.2C67.35,66,67.14,66.1,67,66.16Z" transform="translate(0)" style="fill:#e5ef11;stroke:#fff;stroke-miterlimit:10"/><path d="M67,66.16l.63-.19-.56-.2-1.25.2Z" transform="translate(0)" style="fill:#e5ef11;stroke:#fff;stroke-miterlimit:10"/>
    <path d="M65.47,65.9h.35l1.25-.19c-.34-.13-.76-.33-1.18-.52A3.4,3.4,0,0,1,65.47,65.9Z" transform="translate(0)" style="fill:#e5ef11;stroke:#fff;stroke-miterlimit:10"/>
    <path d="M68.4,66.1c0-.13-.07-.26-.07-.39-.21.06-.49.19-.7.26A2.89,2.89,0,0,0,68.4,66.1Z" transform="translate(0)" style="fill:#e5ef11;stroke:#fff;stroke-miterlimit:10"/>
    <path d="M67,65.77l.56.2a5.89,5.89,0,0,1,.7-.26v-.13Z" transform="translate(0)" style="fill:#e5ef11;stroke:#fff;stroke-miterlimit:10"/>
    <path d="M65.89,65.32a10.31,10.31,0,0,0,1.18.52l1.19-.2a2.64,2.64,0,0,0-.7-1.17,6.29,6.29,0,0,1-1.39.52C66,65,66,65.16,65.89,65.32Z" transform="translate(0)" style="fill:#e5ef11;stroke:#fff;stroke-miterlimit:10"/>
    <path d="M67.14,64.08a10.13,10.13,0,0,1-1,.72l-.07.06a3.84,3.84,0,0,0,1.39-.52.75.75,0,0,0-.35-.26Z" transform="translate(0)" style="fill:#e5ef11;stroke:#fff;stroke-miterlimit:10"/><path d="M45.72,77.56a78.48,78.48,0,0,1,12-10.74,98.51,98.51,0,0,0-21.91,9c-1.88,1-3.69,2-5.36,3.07,3-.07,6.19-.26,9.53-.65A42.6,42.6,0,0,0,45.72,77.56Z" transform="translate(0)" style="fill:#e5ef11;stroke:#fff;stroke-miterlimit:10"/>
    <path d="M69,67.47a5.12,5.12,0,0,0-.55-.59,14.59,14.59,0,0,1-.7,4.5c.42-.2.77-.46,1.11-.66A3.21,3.21,0,0,0,69,67.47Z" transform="translate(0)" style="fill:#e5ef11;stroke:#fff;stroke-miterlimit:10"/><path d="M62,69.75a3.6,3.6,0,0,1-1.74-2.67,1,1,0,0,1,.07-.46.34.34,0,0,1-.14-.26c-.77.13-1.6.33-2.44.52a72.52,72.52,0,0,0-12,10.75,98.66,98.66,0,0,0,15.73-3.58c.42-1,.83-2,1.25-2.94A11.86,11.86,0,0,1,62,69.75Z" transform="translate(0)" style="fill:#e5ef11;stroke:#fff;stroke-miterlimit:10"/>
    <path d="M62.69,71.16c-.42.92-.83,1.89-1.25,2.94A25.07,25.07,0,0,0,64,73.16C63.53,72.42,63.11,71.77,62.69,71.16Z" transform="translate(0)" style="fill:#e5ef11;stroke:#fff;stroke-miterlimit:10"/>
    <path d="M60.26,66.55c0,.14-.07.33-.07.46a3.6,3.6,0,0,0,1.74,2.67c-.42-.85-.77-1.63-1.12-2.34A6.19,6.19,0,0,1,60.26,66.55Z" transform="translate(0)" style="fill:#e5ef11;stroke:#fff;stroke-miterlimit:10"/>
    <path d="M60.12,66.36h0a.31.31,0,0,1,.14.26v-.07C60.26,66.42,60.19,66.42,60.12,66.36Z" transform="translate(0)" style="fill:#e5ef11;stroke:#fff;stroke-miterlimit:10"/>
    <path d="M60.12,66.36c.07.06.14.13.21.13s.07-.13.07-.2S60.19,66.36,60.12,66.36Z" transform="translate(0)" style="fill:#e5ef11;stroke:#fff;stroke-miterlimit:10"/>
    <path d="M60.53,66.62c-.07-.07-.13-.07-.27-.13v.06a4.85,4.85,0,0,0,.55.79A4.48,4.48,0,0,0,60.53,66.62Z" transform="translate(0)" style="fill:#e5ef11;stroke:#fff;stroke-miterlimit:10"/>
    <path d="M60.33,66.29c0,.07-.07.13-.07.2a.41.41,0,0,0,.27.13A.59.59,0,0,0,60.33,66.29Z" transform="translate(0)" style="fill:#e5ef11;stroke:#fff;stroke-miterlimit:10"/>
    <path d="M63,70.4c-.35-.2-.7-.46-1-.65a12.09,12.09,0,0,0,.76,1.36c.07-.19.21-.39.28-.58A.2.2,0,0,1,63,70.4Z" transform="translate(0)" style="fill:#e5ef11;stroke:#fff;stroke-miterlimit:10"/>
    <path d="M64.15,71.77A3.13,3.13,0,0,1,63,70.46c-.07.2-.21.39-.28.59.35.65.77,1.3,1.18,2A.27.27,0,0,0,64,73,3.51,3.51,0,0,0,64.15,71.77Z" transform="translate(0)" style="fill:#e5ef11;stroke:#fff;stroke-miterlimit:10"/>
    <path d="M64.08,73.07l1.46-.59a5.51,5.51,0,0,1-1.39-.65A8.59,8.59,0,0,1,64.08,73.07Z" transform="translate(0)" style="fill:#e5ef11;stroke:#fff;stroke-miterlimit:10"/>
    <path d="M63,70.4a.06.06,0,0,0,.06.06h0Z" transform="translate(0)" style="fill:#e5ef11;stroke:#fff;stroke-miterlimit:10"/>
    <path d="M63,70.4h0a3,3,0,0,0,1.11,1.37c0-.26.07-.46.07-.72A7.52,7.52,0,0,1,63,70.4Z" transform="translate(0)" style="fill:#e5ef11;stroke:#fff;stroke-miterlimit:10"/>
    <path d="M65.13,71.44c-.35-.13-.63-.26-.91-.39,0,.26-.07.46-.07.72a7,7,0,0,0,1.39.65c.21-.07.35-.2.56-.26A9.74,9.74,0,0,1,65.13,71.44Z" transform="translate(0)" style="fill:#e5ef11;stroke:#fff;stroke-miterlimit:10"/>
    <path d="M63,70.33a3,3,0,0,1-.14-.84,18,18,0,0,1-2-2.09c.35.72.7,1.5,1.12,2.35a9.17,9.17,0,0,0,1,.65Z" transform="translate(0)" style="fill:#e5ef11;stroke:#fff;stroke-miterlimit:10"/>
    <path d="M63.32,69.88l-.42-.39a1.84,1.84,0,0,0,.14.84v.07s.07,0,.07.06A1,1,0,0,1,63.32,69.88Z" transform="translate(0)" style="fill:#e5ef11;stroke:#fff;stroke-miterlimit:10"/>
    <path d="M63.32,69.88a2,2,0,0,1-.28.52c.35.19.76.39,1.18.65v-.33A10.17,10.17,0,0,1,63.32,69.88Z" transform="translate(0)" style="fill:#e5ef11;stroke:#fff;stroke-miterlimit:10"/>
    <path d="M64.22,71.05l.91.39c-.28-.26-.63-.46-.91-.72Z" transform="translate(0)" style="fill:#e5ef11;stroke:#fff;stroke-miterlimit:10"/>
    <path d="M66.1,72.16l.42-.2c-.49-.19-1-.32-1.39-.52A9.74,9.74,0,0,0,66.1,72.16Z" transform="translate(0)" style="fill:#e5ef11;stroke:#fff;stroke-miterlimit:10"/>
    <path d="M60.53,66.62c.07.26.21.52.28.72a28.06,28.06,0,0,0,2,2.08A4.57,4.57,0,0,1,64,66.88,5.21,5.21,0,0,1,60.53,66.62Z" transform="translate(0)" style="fill:#e5ef11;stroke:#fff;stroke-miterlimit:10"/>
    <path d="M64,67a8.82,8.82,0,0,1,.77-.85,23.51,23.51,0,0,1-4.11.13.43.43,0,0,0-.27.06c.06.13.06.26.13.33A5.84,5.84,0,0,0,64,67Z" transform="translate(0)" style="fill:#e5ef11;stroke:#fff;stroke-miterlimit:10"/>
    <path d="M60.67,66.23a31.36,31.36,0,0,0,4.11-.13l.21-.2A22.34,22.34,0,0,0,60.67,66.23Z" transform="translate(0)" style="fill:#e5ef11;stroke:#fff;stroke-miterlimit:10"/>
    <path d="M64.85,67a.25.25,0,0,1,.07-.2L64,67a4.57,4.57,0,0,0-1.18,2.54l.42.39C63.8,68.83,64.36,67.86,64.85,67Z" transform="translate(0)" style="fill:#e5ef11;stroke:#fff;stroke-miterlimit:10"/>
    <path d="M64.78,66.1A8.82,8.82,0,0,0,64,67l.91-.2c.07-.26.14-.46.21-.72A.84.84,0,0,1,64.78,66.1Z" transform="translate(0)" style="fill:#e5ef11;stroke:#fff;stroke-miterlimit:10"/>
    <path d="M65.13,65.9H65l-.21.2a.4.4,0,0,0,.28-.07C65.13,66,65.13,66,65.13,65.9Z" transform="translate(0)" style="fill:#e5ef11;stroke:#fff;stroke-miterlimit:10"/>
    <path d="M64.92,66.75a.25.25,0,0,1-.07.2A.25.25,0,0,0,64.92,66.75Z" transform="translate(0)" style="fill:#e5ef11;stroke:#fff;stroke-miterlimit:10"/>
    <path d="M65.4,66a.57.57,0,0,0-.34.07c-.07.26-.14.45-.21.72h.07C65.13,66.49,65.27,66.23,65.4,66Z" transform="translate(0)" style="fill:#e5ef11;stroke:#fff;stroke-miterlimit:10"/>
    <path d="M65.13,65.9c0,.07,0,.07-.07.13A.66.66,0,0,0,65.4,66a.07.07,0,0,1,.07-.07Z" transform="translate(0)" style="fill:#e5ef11;stroke:#fff;stroke-miterlimit:10"/>
    <path d="M64.85,67c-.56.91-1,1.88-1.6,2.93a11.4,11.4,0,0,0,1,.84A34.74,34.74,0,0,1,64.85,67Z" transform="translate(0)" style="fill:#e5ef11;stroke:#fff;stroke-miterlimit:10"/>
    <path d="M65,66.75c-.07.07-.07.13-.14.2a26.72,26.72,0,0,0-.63,3.77,9,9,0,0,0,.91.72c.41.2.9.33,1.39.52.42-.19.83-.39,1.18-.58a14.59,14.59,0,0,0,.7-4.5A3.33,3.33,0,0,0,67,66.16,13.9,13.9,0,0,1,65,66.75Z" transform="translate(0)" style="fill:#e5ef11;stroke:#fff;stroke-miterlimit:10"/>
    <path d="M65.4,66a6.37,6.37,0,0,1-.41.72,13.9,13.9,0,0,0,2-.59A6.75,6.75,0,0,0,65.81,66,1,1,0,0,0,65.4,66Z" transform="translate(0)" style="fill:#e5ef11;stroke:#fff;stroke-miterlimit:10"/>
    <path d="M65.47,65.9a.07.07,0,0,1-.07.07c.14,0,.28-.07.42-.07A.32.32,0,0,1,65.47,65.9Z" transform="translate(0)" style="fill:#e5ef11;stroke:#fff;stroke-miterlimit:10"/>
  </g>
</g>

<g id="dot"><ellipse id="_center_" data-name=" center " cx="65.4" cy="59.78" rx="18.09" ry="16.94" style="fill:#0f0f0f"/></g></svg>